<svg width="64" height="64" viewBox="0 0 64 64" fill="none" xmlns="http://www.w3.org/2000/svg">
<path d="M64 32.0004C64 49.6736 49.6731 64.0004 32 64.0004C16.64 64.0004 8.16 53.2804 11.44 53.6004H32C43.9293 53.6004 53.6 43.9298 53.6 32.0004C53.6 31.5707 53.8953 30.7204 55.04 30.7204H62.88C63.84 30.7204 64 31.5718 64 32.0004Z" fill="#398D4F"/>
<path d="M18.4224 48.8004C15.1358 46.1409 12.6452 42.5365 11.3639 38.4004H1.92C-0.64 39.0404 3.04 48.8004 5.44 48.8004H18.4224Z" fill="#398D4F"/>
<path d="M62.08 25.6004H52.6361C51.3548 21.4644 48.8642 17.86 45.5776 15.2004H58.56C60.96 15.2004 64.64 24.9604 62.08 25.6004Z" fill="#398D4F"/>
<path d="M10.4 32.0004C10.4 20.0711 20.0706 10.4004 32 10.4004H52.48C55.84 10.0804 47.36 0.0804383 32 0.000438261C14.3271 -0.091608 0 14.3273 0 32.0004C0 32.4291 0.16 33.2804 1.12 33.2804H8.96C10.08 33.2804 10.4 32.4302 10.4 32.0004Z" fill="#398D4F"/>
<path d="M32 48.8004C41.2784 48.8004 48.8 41.2788 48.8 32.0004C48.8 31.5698 48.64 30.7204 47.36 30.7204H39.84C38.72 30.7204 38.4 31.5621 38.4 32.0004C38.4 35.5351 35.5346 38.4004 32 38.4004H1.92L18.4224 48.8004H32Z" fill="#398D4F"/>
<path d="M16.64 33.2804C15.36 33.2804 15.2 32.4311 15.2 32.0004C15.2 22.7221 22.7216 15.2004 32 15.2004H45.5776L62.08 25.6004H32C28.4654 25.6004 25.6 28.4658 25.6 32.0004C25.6 32.4388 25.28 33.2804 24.16 33.2804H16.64Z" fill="#398D4F"/>
</svg>
