<svg width="400" height="127" viewBox="0 0 400 127" fill="none" xmlns="http://www.w3.org/2000/svg">
<path d="M166.082 28.8244C165.842 29.2084 165.586 29.4964 165.314 29.6884C165.058 29.8804 164.722 29.9764 164.306 29.9764C163.938 29.9764 163.538 29.8644 163.106 29.6404C162.69 29.4004 162.21 29.1364 161.666 28.8484C161.138 28.5604 160.53 28.3044 159.842 28.0804C159.154 27.8404 158.37 27.7204 157.49 27.7204C155.97 27.7204 154.834 28.0484 154.082 28.7044C153.346 29.3444 152.978 30.2164 152.978 31.3204C152.978 32.0244 153.202 32.6084 153.65 33.0724C154.098 33.5364 154.682 33.9364 155.402 34.2724C156.138 34.6084 156.97 34.9204 157.898 35.2084C158.842 35.4804 159.802 35.7924 160.778 36.1444C161.754 36.4804 162.706 36.8804 163.634 37.3444C164.578 37.8084 165.41 38.4004 166.13 39.1204C166.866 39.8404 167.458 40.7204 167.906 41.7604C168.354 42.7844 168.578 44.0244 168.578 45.4804C168.578 47.0964 168.298 48.6084 167.738 50.0164C167.178 51.4244 166.362 52.6564 165.29 53.7124C164.234 54.7524 162.922 55.5764 161.354 56.1844C159.802 56.7764 158.034 57.0724 156.05 57.0724C154.962 57.0724 153.85 56.9604 152.714 56.7364C151.594 56.5124 150.506 56.2004 149.45 55.8004C148.394 55.3844 147.402 54.8964 146.474 54.3364C145.546 53.7764 144.738 53.1524 144.05 52.4644L146.45 48.6724C146.642 48.4004 146.89 48.1764 147.194 48.0004C147.514 47.8084 147.858 47.7124 148.226 47.7124C148.706 47.7124 149.186 47.8644 149.666 48.1684C150.162 48.4724 150.714 48.8084 151.322 49.1764C151.946 49.5444 152.658 49.8804 153.458 50.1844C154.258 50.4884 155.202 50.6404 156.29 50.6404C157.762 50.6404 158.906 50.3204 159.722 49.6804C160.538 49.0244 160.946 47.9924 160.946 46.5844C160.946 45.7684 160.722 45.1044 160.274 44.5924C159.826 44.0804 159.234 43.6564 158.498 43.3204C157.778 42.9844 156.954 42.6884 156.026 42.4324C155.098 42.1764 154.146 41.8964 153.17 41.5924C152.194 41.2724 151.242 40.8884 150.314 40.4404C149.386 39.9764 148.554 39.3764 147.818 38.6404C147.098 37.8884 146.514 36.9604 146.066 35.8564C145.618 34.7364 145.394 33.3604 145.394 31.7284C145.394 30.4164 145.658 29.1364 146.186 27.8884C146.714 26.6404 147.49 25.5284 148.514 24.5524C149.538 23.5764 150.794 22.8004 152.282 22.2244C153.77 21.6324 155.474 21.3364 157.394 21.3364C158.466 21.3364 159.506 21.4244 160.514 21.6004C161.538 21.7604 162.506 22.0084 163.418 22.3444C164.33 22.6644 165.178 23.0564 165.962 23.5204C166.762 23.9684 167.474 24.4804 168.098 25.0564L166.082 28.8244ZM187.956 41.2564C187.956 40.6644 187.876 40.0884 187.716 39.5284C187.572 38.9684 187.324 38.4724 186.972 38.0404C186.636 37.5924 186.188 37.2324 185.628 36.9604C185.068 36.6884 184.388 36.5524 183.588 36.5524C182.18 36.5524 181.076 36.9604 180.276 37.7764C179.476 38.5764 178.948 39.7364 178.692 41.2564H187.956ZM178.596 45.5764C178.836 47.6564 179.468 49.1684 180.492 50.1124C181.516 51.0404 182.836 51.5044 184.452 51.5044C185.316 51.5044 186.06 51.4004 186.684 51.1924C187.308 50.9844 187.86 50.7524 188.34 50.4964C188.836 50.2404 189.284 50.0084 189.684 49.8004C190.1 49.5924 190.532 49.4884 190.98 49.4884C191.572 49.4884 192.02 49.7044 192.324 50.1364L194.484 52.8004C193.716 53.6804 192.884 54.4004 191.988 54.9604C191.108 55.5044 190.196 55.9364 189.252 56.2564C188.324 56.5604 187.388 56.7684 186.444 56.8804C185.516 57.0084 184.628 57.0724 183.78 57.0724C182.036 57.0724 180.396 56.7924 178.86 56.2324C177.34 55.6564 176.004 54.8084 174.852 53.6884C173.716 52.5684 172.812 51.1764 172.14 49.5124C171.484 47.8484 171.156 45.9124 171.156 43.7044C171.156 42.0404 171.436 40.4644 171.996 38.9764C172.572 37.4884 173.388 36.1844 174.444 35.0644C175.516 33.9444 176.804 33.0564 178.308 32.4004C179.828 31.7444 181.54 31.4164 183.444 31.4164C185.092 31.4164 186.596 31.6724 187.956 32.1844C189.332 32.6964 190.508 33.4404 191.484 34.4164C192.476 35.3924 193.244 36.5924 193.788 38.0164C194.348 39.4244 194.628 41.0244 194.628 42.8164C194.628 43.3764 194.604 43.8324 194.556 44.1844C194.508 44.5364 194.42 44.8164 194.292 45.0244C194.164 45.2324 193.988 45.3764 193.764 45.4564C193.556 45.5364 193.284 45.5764 192.948 45.5764H178.596ZM206.927 57.0724C205.743 57.0724 204.695 56.9044 203.783 56.5684C202.887 56.2164 202.127 55.7284 201.503 55.1044C200.895 54.4644 200.431 53.6964 200.111 52.8004C199.791 51.9044 199.631 50.9044 199.631 49.8004V36.9364H197.519C197.135 36.9364 196.807 36.8164 196.535 36.5764C196.263 36.3204 196.127 35.9524 196.127 35.4724V32.5684L200.087 31.8004L201.551 25.7284C201.743 24.9604 202.287 24.5764 203.183 24.5764H207.071V31.8484H213.239V36.9364H207.071V49.2964C207.071 49.8724 207.207 50.3524 207.479 50.7364C207.767 51.1044 208.175 51.2884 208.703 51.2884C208.975 51.2884 209.199 51.2644 209.375 51.2164C209.567 51.1524 209.727 51.0884 209.855 51.0244C209.999 50.9444 210.127 50.8804 210.239 50.8324C210.367 50.7684 210.511 50.7364 210.671 50.7364C210.895 50.7364 211.071 50.7924 211.199 50.9044C211.343 51.0004 211.487 51.1604 211.631 51.3844L213.887 54.9124C212.927 55.6324 211.847 56.1764 210.647 56.5444C209.447 56.8964 208.207 57.0724 206.927 57.0724ZM229.285 46.5604C227.797 46.6244 226.573 46.7524 225.613 46.9444C224.653 47.1364 223.893 47.3764 223.333 47.6644C222.773 47.9524 222.381 48.2804 222.157 48.6484C221.949 49.0164 221.845 49.4164 221.845 49.8484C221.845 50.6964 222.077 51.2964 222.541 51.6484C223.005 51.9844 223.685 52.1524 224.581 52.1524C225.541 52.1524 226.381 51.9844 227.101 51.6484C227.821 51.3124 228.549 50.7684 229.285 50.0164V46.5604ZM215.893 35.2564C217.397 33.9284 219.061 32.9444 220.885 32.3044C222.725 31.6484 224.693 31.3204 226.789 31.3204C228.293 31.3204 229.645 31.5684 230.845 32.0644C232.061 32.5444 233.085 33.2244 233.917 34.1044C234.765 34.9684 235.413 36.0004 235.861 37.2004C236.309 38.4004 236.533 39.7124 236.533 41.1364V56.6884H233.125C232.421 56.6884 231.885 56.5924 231.517 56.4004C231.165 56.2084 230.869 55.8084 230.629 55.2004L230.101 53.8324C229.477 54.3604 228.877 54.8244 228.301 55.2244C227.725 55.6244 227.125 55.9684 226.501 56.2564C225.893 56.5284 225.237 56.7284 224.533 56.8564C223.845 57.0004 223.077 57.0724 222.229 57.0724C221.093 57.0724 220.061 56.9284 219.133 56.6404C218.205 56.3364 217.413 55.8964 216.757 55.3204C216.117 54.7444 215.621 54.0324 215.269 53.1844C214.917 52.3204 214.741 51.3284 214.741 50.2084C214.741 49.3124 214.965 48.4084 215.413 47.4964C215.861 46.5684 216.637 45.7284 217.741 44.9764C218.845 44.2084 220.333 43.5684 222.205 43.0564C224.077 42.5444 226.437 42.2564 229.285 42.1924V41.1364C229.285 39.6804 228.981 38.6324 228.373 37.9924C227.781 37.3364 226.933 37.0084 225.829 37.0084C224.949 37.0084 224.229 37.1044 223.669 37.2964C223.109 37.4884 222.605 37.7044 222.157 37.9444C221.725 38.1844 221.301 38.4004 220.885 38.5924C220.469 38.7844 219.973 38.8804 219.397 38.8804C218.885 38.8804 218.453 38.7524 218.101 38.4964C217.749 38.2404 217.461 37.9364 217.237 37.5844L215.893 35.2564ZM248.249 35.6404C249.017 34.2964 249.897 33.2404 250.889 32.4724C251.897 31.7044 253.049 31.3204 254.345 31.3204C255.465 31.3204 256.377 31.5844 257.081 32.1124L256.601 37.5844C256.521 37.9364 256.385 38.1764 256.193 38.3044C256.017 38.4324 255.769 38.4964 255.449 38.4964C255.321 38.4964 255.153 38.4884 254.945 38.4724C254.737 38.4564 254.521 38.4404 254.297 38.4244C254.073 38.3924 253.841 38.3684 253.601 38.3524C253.377 38.3204 253.169 38.3044 252.977 38.3044C251.889 38.3044 251.017 38.5924 250.361 39.1684C249.721 39.7444 249.177 40.5444 248.729 41.5684V56.6884H241.289V31.8004H245.705C246.073 31.8004 246.377 31.8324 246.617 31.8964C246.873 31.9604 247.081 32.0644 247.241 32.2084C247.417 32.3364 247.545 32.5124 247.625 32.7364C247.721 32.9604 247.801 33.2324 247.865 33.5524L248.249 35.6404ZM272.223 46.5604C270.735 46.6244 269.511 46.7524 268.551 46.9444C267.591 47.1364 266.831 47.3764 266.271 47.6644C265.711 47.9524 265.319 48.2804 265.095 48.6484C264.887 49.0164 264.783 49.4164 264.783 49.8484C264.783 50.6964 265.015 51.2964 265.479 51.6484C265.943 51.9844 266.623 52.1524 267.519 52.1524C268.479 52.1524 269.319 51.9844 270.039 51.6484C270.759 51.3124 271.487 50.7684 272.223 50.0164V46.5604ZM258.831 35.2564C260.335 33.9284 261.999 32.9444 263.823 32.3044C265.663 31.6484 267.631 31.3204 269.727 31.3204C271.231 31.3204 272.583 31.5684 273.783 32.0644C274.999 32.5444 276.023 33.2244 276.855 34.1044C277.703 34.9684 278.351 36.0004 278.799 37.2004C279.247 38.4004 279.471 39.7124 279.471 41.1364V56.6884H276.063C275.359 56.6884 274.823 56.5924 274.455 56.4004C274.103 56.2084 273.807 55.8084 273.567 55.2004L273.039 53.8324C272.415 54.3604 271.815 54.8244 271.239 55.2244C270.663 55.6244 270.063 55.9684 269.439 56.2564C268.831 56.5284 268.175 56.7284 267.471 56.8564C266.783 57.0004 266.015 57.0724 265.167 57.0724C264.031 57.0724 262.999 56.9284 262.071 56.6404C261.143 56.3364 260.351 55.8964 259.695 55.3204C259.055 54.7444 258.559 54.0324 258.207 53.1844C257.855 52.3204 257.679 51.3284 257.679 50.2084C257.679 49.3124 257.903 48.4084 258.351 47.4964C258.799 46.5684 259.575 45.7284 260.679 44.9764C261.783 44.2084 263.271 43.5684 265.143 43.0564C267.015 42.5444 269.375 42.2564 272.223 42.1924V41.1364C272.223 39.6804 271.919 38.6324 271.311 37.9924C270.719 37.3364 269.871 37.0084 268.767 37.0084C267.887 37.0084 267.167 37.1044 266.607 37.2964C266.047 37.4884 265.543 37.7044 265.095 37.9444C264.663 38.1844 264.239 38.4004 263.823 38.5924C263.407 38.7844 262.911 38.8804 262.335 38.8804C261.823 38.8804 261.391 38.7524 261.039 38.4964C260.687 38.2404 260.399 37.9364 260.175 37.5844L258.831 35.2564ZM170.33 97.6404C170.522 97.6404 170.714 97.6804 170.906 97.7604C171.098 97.8244 171.282 97.9444 171.458 98.1204L174.674 101.504C173.266 103.344 171.498 104.736 169.37 105.68C167.258 106.608 164.754 107.072 161.858 107.072C159.202 107.072 156.818 106.624 154.706 105.728C152.61 104.816 150.826 103.568 149.354 101.984C147.898 100.384 146.778 98.4964 145.994 96.3204C145.21 94.1284 144.818 91.7524 144.818 89.1924C144.818 86.5844 145.242 84.1924 146.09 82.0164C146.938 79.8244 148.13 77.9364 149.666 76.3524C151.202 74.7684 153.042 73.5364 155.186 72.6564C157.33 71.7764 159.69 71.3364 162.266 71.3364C163.578 71.3364 164.81 71.4564 165.962 71.6964C167.13 71.9204 168.218 72.2404 169.226 72.6564C170.234 73.0564 171.162 73.5444 172.01 74.1204C172.858 74.6964 173.61 75.3204 174.266 75.9924L171.53 79.6644C171.354 79.8884 171.146 80.0964 170.906 80.2884C170.666 80.4644 170.33 80.5524 169.898 80.5524C169.61 80.5524 169.338 80.4884 169.082 80.3604C168.826 80.2324 168.554 80.0804 168.266 79.9044C167.978 79.7124 167.658 79.5124 167.306 79.3044C166.97 79.0804 166.562 78.8804 166.082 78.7044C165.618 78.5124 165.066 78.3524 164.426 78.2244C163.802 78.0964 163.066 78.0324 162.218 78.0324C160.874 78.0324 159.642 78.2804 158.522 78.7764C157.418 79.2724 156.458 80.0004 155.642 80.9604C154.842 81.9044 154.218 83.0724 153.77 84.4644C153.338 85.8404 153.122 87.4164 153.122 89.1924C153.122 90.9844 153.362 92.5764 153.842 93.9684C154.338 95.3604 155.002 96.5364 155.834 97.4964C156.682 98.4404 157.666 99.1604 158.786 99.6564C159.906 100.152 161.106 100.4 162.386 100.4C163.122 100.4 163.794 100.368 164.402 100.304C165.01 100.224 165.578 100.104 166.106 99.9444C166.634 99.7684 167.13 99.5444 167.594 99.2724C168.058 98.9844 168.53 98.6244 169.01 98.1924C169.202 98.0324 169.41 97.9044 169.634 97.8084C169.858 97.6964 170.09 97.6404 170.33 97.6404ZM188.308 81.4164C190.196 81.4164 191.916 81.7124 193.468 82.3044C195.02 82.8964 196.348 83.7444 197.452 84.8484C198.572 85.9524 199.436 87.2964 200.044 88.8804C200.668 90.4484 200.98 92.2164 200.98 94.1844C200.98 96.1684 200.668 97.9604 200.044 99.5604C199.436 101.144 198.572 102.496 197.452 103.616C196.348 104.72 195.02 105.576 193.468 106.184C191.916 106.776 190.196 107.072 188.308 107.072C186.404 107.072 184.668 106.776 183.1 106.184C181.548 105.576 180.204 104.72 179.068 103.616C177.948 102.496 177.076 101.144 176.452 99.5604C175.844 97.9604 175.54 96.1684 175.54 94.1844C175.54 92.2164 175.844 90.4484 176.452 88.8804C177.076 87.2964 177.948 85.9524 179.068 84.8484C180.204 83.7444 181.548 82.8964 183.1 82.3044C184.668 81.7124 186.404 81.4164 188.308 81.4164ZM188.308 101.552C190.02 101.552 191.276 100.952 192.076 99.7524C192.892 98.5364 193.3 96.6964 193.3 94.2324C193.3 91.7684 192.892 89.9364 192.076 88.7364C191.276 87.5364 190.02 86.9364 188.308 86.9364C186.548 86.9364 185.26 87.5364 184.444 88.7364C183.628 89.9364 183.22 91.7684 183.22 94.2324C183.22 96.6964 183.628 98.5364 184.444 99.7524C185.26 100.952 186.548 101.552 188.308 101.552ZM204.726 106.688V81.8004H209.334C210.262 81.8004 210.87 82.2164 211.158 83.0484L211.566 84.3924C211.982 83.9604 212.414 83.5684 212.862 83.2164C213.31 82.8484 213.79 82.5364 214.302 82.2804C214.83 82.0084 215.39 81.8004 215.982 81.6564C216.59 81.4964 217.254 81.4164 217.974 81.4164C219.478 81.4164 220.718 81.8084 221.694 82.5924C222.686 83.3604 223.438 84.3924 223.95 85.6884C224.366 84.9204 224.87 84.2644 225.462 83.7204C226.07 83.1764 226.718 82.7364 227.406 82.4004C228.11 82.0644 228.846 81.8164 229.614 81.6564C230.398 81.4964 231.174 81.4164 231.942 81.4164C233.366 81.4164 234.63 81.6324 235.734 82.0644C236.838 82.4804 237.758 83.0964 238.494 83.9124C239.246 84.7124 239.814 85.7044 240.198 86.8884C240.582 88.0564 240.774 89.3844 240.774 90.8724V106.688H233.334V90.8724C233.334 88.2964 232.23 87.0084 230.022 87.0084C229.014 87.0084 228.174 87.3444 227.502 88.0164C226.846 88.6724 226.518 89.6244 226.518 90.8724V106.688H219.078V90.8724C219.078 89.4484 218.798 88.4484 218.238 87.8724C217.678 87.2964 216.854 87.0084 215.766 87.0084C215.094 87.0084 214.454 87.1604 213.846 87.4644C213.254 87.7684 212.694 88.1764 212.166 88.6884V106.688H204.726ZM245.554 106.688V81.8004H250.162C251.09 81.8004 251.698 82.2164 251.986 83.0484L252.394 84.3924C252.81 83.9604 253.242 83.5684 253.69 83.2164C254.138 82.8484 254.618 82.5364 255.13 82.2804C255.658 82.0084 256.218 81.8004 256.81 81.6564C257.418 81.4964 258.082 81.4164 258.802 81.4164C260.306 81.4164 261.546 81.8084 262.522 82.5924C263.514 83.3604 264.266 84.3924 264.778 85.6884C265.194 84.9204 265.698 84.2644 266.29 83.7204C266.898 83.1764 267.546 82.7364 268.234 82.4004C268.938 82.0644 269.674 81.8164 270.442 81.6564C271.226 81.4964 272.002 81.4164 272.77 81.4164C274.194 81.4164 275.458 81.6324 276.562 82.0644C277.666 82.4804 278.586 83.0964 279.322 83.9124C280.074 84.7124 280.642 85.7044 281.026 86.8884C281.41 88.0564 281.602 89.3844 281.602 90.8724V106.688H274.162V90.8724C274.162 88.2964 273.058 87.0084 270.85 87.0084C269.842 87.0084 269.002 87.3444 268.33 88.0164C267.674 88.6724 267.346 89.6244 267.346 90.8724V106.688H259.906V90.8724C259.906 89.4484 259.626 88.4484 259.066 87.8724C258.506 87.2964 257.682 87.0084 256.594 87.0084C255.922 87.0084 255.282 87.1604 254.674 87.4644C254.082 87.7684 253.522 88.1764 252.994 88.6884V106.688H245.554ZM297.855 81.4164C299.743 81.4164 301.463 81.7124 303.015 82.3044C304.567 82.8964 305.895 83.7444 306.999 84.8484C308.119 85.9524 308.983 87.2964 309.591 88.8804C310.215 90.4484 310.527 92.2164 310.527 94.1844C310.527 96.1684 310.215 97.9604 309.591 99.5604C308.983 101.144 308.119 102.496 306.999 103.616C305.895 104.72 304.567 105.576 303.015 106.184C301.463 106.776 299.743 107.072 297.855 107.072C295.951 107.072 294.215 106.776 292.647 106.184C291.095 105.576 289.751 104.72 288.615 103.616C287.495 102.496 286.623 101.144 285.999 99.5604C285.391 97.9604 285.087 96.1684 285.087 94.1844C285.087 92.2164 285.391 90.4484 285.999 88.8804C286.623 87.2964 287.495 85.9524 288.615 84.8484C289.751 83.7444 291.095 82.8964 292.647 82.3044C294.215 81.7124 295.951 81.4164 297.855 81.4164ZM297.855 101.552C299.567 101.552 300.823 100.952 301.623 99.7524C302.439 98.5364 302.847 96.6964 302.847 94.2324C302.847 91.7684 302.439 89.9364 301.623 88.7364C300.823 87.5364 299.567 86.9364 297.855 86.9364C296.095 86.9364 294.807 87.5364 293.991 88.7364C293.175 89.9364 292.767 91.7684 292.767 94.2324C292.767 96.6964 293.175 98.5364 293.991 99.7524C294.807 100.952 296.095 101.552 297.855 101.552ZM329.369 88.4724C328.809 87.8484 328.201 87.4164 327.545 87.1764C326.889 86.9204 326.201 86.7924 325.481 86.7924C324.793 86.7924 324.161 86.9284 323.585 87.2004C323.009 87.4724 322.505 87.9124 322.073 88.5204C321.657 89.1124 321.329 89.8884 321.089 90.8484C320.849 91.8084 320.729 92.9684 320.729 94.3284C320.729 95.6404 320.825 96.7444 321.017 97.6404C321.209 98.5364 321.473 99.2644 321.809 99.8244C322.161 100.368 322.577 100.76 323.057 101C323.537 101.24 324.073 101.36 324.665 101.36C325.209 101.36 325.697 101.312 326.129 101.216C326.577 101.104 326.985 100.952 327.353 100.76C327.721 100.568 328.065 100.328 328.385 100.04C328.721 99.7364 329.049 99.3924 329.369 99.0084V88.4724ZM336.809 70.7604V106.688H332.201C331.273 106.688 330.665 106.272 330.377 105.44L329.801 103.544C329.305 104.072 328.785 104.552 328.241 104.984C327.697 105.416 327.105 105.792 326.465 106.112C325.841 106.416 325.161 106.648 324.425 106.808C323.705 106.984 322.921 107.072 322.073 107.072C320.777 107.072 319.577 106.784 318.473 106.208C317.369 105.632 316.417 104.8 315.617 103.712C314.817 102.624 314.185 101.296 313.721 99.7284C313.273 98.1444 313.049 96.3444 313.049 94.3284C313.049 92.4724 313.305 90.7524 313.817 89.1684C314.329 87.5684 315.049 86.1924 315.977 85.0404C316.921 83.8724 318.049 82.9604 319.361 82.3044C320.673 81.6484 322.121 81.3204 323.705 81.3204C325.001 81.3204 326.089 81.5044 326.969 81.8724C327.849 82.2404 328.649 82.7364 329.369 83.3604V70.7604H336.809ZM349.444 81.8004V106.688H342.004V81.8004H349.444ZM350.212 74.9844C350.212 75.5764 350.092 76.1364 349.852 76.6644C349.612 77.1764 349.284 77.6324 348.868 78.0324C348.452 78.4164 347.964 78.7284 347.404 78.9684C346.86 79.1924 346.276 79.3044 345.652 79.3044C345.044 79.3044 344.476 79.1924 343.948 78.9684C343.42 78.7284 342.948 78.4164 342.532 78.0324C342.132 77.6324 341.812 77.1764 341.572 76.6644C341.348 76.1364 341.236 75.5764 341.236 74.9844C341.236 74.3764 341.348 73.8084 341.572 73.2804C341.812 72.7524 342.132 72.2884 342.532 71.8884C342.948 71.4884 343.42 71.1764 343.948 70.9524C344.476 70.7284 345.044 70.6164 345.652 70.6164C346.276 70.6164 346.86 70.7284 347.404 70.9524C347.964 71.1764 348.452 71.4884 348.868 71.8884C349.284 72.2884 349.612 72.7524 349.852 73.2804C350.092 73.8084 350.212 74.3764 350.212 74.9844ZM363.537 107.072C362.353 107.072 361.305 106.904 360.393 106.568C359.497 106.216 358.737 105.728 358.113 105.104C357.505 104.464 357.041 103.696 356.721 102.8C356.401 101.904 356.241 100.904 356.241 99.8004V86.9364H354.129C353.745 86.9364 353.417 86.8164 353.145 86.5764C352.873 86.3204 352.737 85.9524 352.737 85.4724V82.5684L356.697 81.8004L358.161 75.7284C358.353 74.9604 358.897 74.5764 359.793 74.5764H363.681V81.8484H369.849V86.9364H363.681V99.2964C363.681 99.8724 363.817 100.352 364.089 100.736C364.377 101.104 364.785 101.288 365.313 101.288C365.585 101.288 365.809 101.264 365.985 101.216C366.177 101.152 366.337 101.088 366.465 101.024C366.609 100.944 366.737 100.88 366.849 100.832C366.977 100.768 367.121 100.736 367.281 100.736C367.505 100.736 367.681 100.792 367.809 100.904C367.953 101 368.097 101.16 368.241 101.384L370.497 104.912C369.537 105.632 368.457 106.176 367.257 106.544C366.057 106.896 364.817 107.072 363.537 107.072ZM396.694 81.8004L383.398 113.144C383.174 113.64 382.902 114 382.582 114.224C382.262 114.464 381.75 114.584 381.046 114.584H375.478L380.278 104.504L370.342 81.8004H376.918C377.494 81.8004 377.934 81.9284 378.238 82.1844C378.558 82.4404 378.79 82.7444 378.934 83.0964L383.014 93.8244C383.398 94.8004 383.71 95.8004 383.95 96.8244C384.126 96.3124 384.302 95.8004 384.478 95.2884C384.654 94.7764 384.838 94.2724 385.03 93.7764L388.726 83.0964C388.87 82.7284 389.126 82.4244 389.494 82.1844C389.862 81.9284 390.262 81.8004 390.694 81.8004H396.694Z" fill="#398D4F"/>
<path d="M126.883 63.4426C126.883 98.4805 98.4796 126.884 63.4417 126.884C32.9897 126.884 16.1776 105.631 22.6804 106.266H63.4417C87.0923 106.266 106.265 87.0932 106.265 63.4426C106.265 62.5907 106.85 60.9049 109.12 60.9049H124.663C126.566 60.9049 126.883 62.5927 126.883 63.4426Z" fill="#398D4F"/>
<path d="M36.5234 96.7495C30.0075 91.4768 25.0698 84.3309 22.5295 76.1309H3.8065C-1.26883 77.3998 6.02696 96.7495 10.7851 96.7495H36.5234Z" fill="#398D4F"/>
<path d="M123.077 50.7542H104.354C101.814 42.5543 96.8759 35.4083 90.36 30.1357H116.098C120.856 30.1357 128.152 49.4854 123.077 50.7542Z" fill="#398D4F"/>
<path d="M20.6186 63.4426C20.6186 39.792 39.7911 20.6194 63.4417 20.6194H104.044C110.706 19.985 93.8937 0.159473 63.4417 0.000868877C28.4043 -0.181618 0 28.4047 0 63.4426C0 64.2925 0.317209 65.9803 2.22046 65.9803H17.7637C19.9841 65.9803 20.6186 64.2945 20.6186 63.4426Z" fill="#398D4F"/>
<path d="M63.4417 96.7495C81.8366 96.7495 96.7486 81.8375 96.7486 63.4426C96.7486 62.5888 96.4314 60.9049 93.8937 60.9049H78.9849C76.7645 60.9049 76.1301 62.5735 76.1301 63.4426C76.1301 70.4502 70.4493 76.1309 63.4417 76.1309H3.8065L36.5234 96.7495H63.4417Z" fill="#398D4F"/>
<path d="M32.9897 65.9803C30.452 65.9803 30.1348 64.2964 30.1348 63.4426C30.1348 45.0477 45.0468 30.1357 63.4417 30.1357H90.36L123.077 50.7542H63.4417C56.4341 50.7542 50.7534 56.435 50.7534 63.4426C50.7534 64.3116 50.119 65.9803 47.8985 65.9803H32.9897Z" fill="#398D4F"/>
</svg>
